<?xml version="1.0" encoding="UTF-8"?>
<svg xmlns="http://www.w3.org/2000/svg" version="1.1" viewBox="0 0 1080 1080">
  <defs>
    <style>
      .cls-1 {
        fill: #0d0000;
      }

      .cls-1, .cls-2, .cls-3 {
        font-family: ArialMT, Arial;
        font-size: 40px;
      }

      .cls-1, .cls-2, .cls-3, .cls-4 {
        isolation: isolate;
      }

      .cls-2 {
        fill: #0b0000;
      }

      .cls-5 {
        fill: #030000;
      }

      .cls-6 {
        fill: #656565;
      }

      .cls-7 {
        display: none;
        fill: #fff;
      }

      .cls-8 {
        fill-opacity: 0;
      }
    </style>
  </defs>
  <!-- Generator: Adobe Illustrator 28.7.1, SVG Export Plug-In . SVG Version: 1.2.0 Build 142)  -->
  <g>
    <g id="Layer_1">
      <g id="Layer_1-2" data-name="Layer_1">
        <rect class="cls-8" y="0" width="1080" height="1080"/>
        <g id="_x30_4218446-93a9-46d0-8fe6-721ca9c7ab00">
          <rect class="cls-7" y="0" width="1080" height="1080" vector-effect="non-scaling-stroke"/>
        </g>
        <g id="_x37_7b45285-1f92-4e21-b6b9-f1e40acba9c2">
          <circle class="cls-6" cx="557.5" cy="522.3" r="478.1" vector-effect="non-scaling-stroke"/>
        </g>
        <path class="cls-5" d="M908.4,333.2v391.3c0,4.5-2.3,9.1-5.7,12.5-6.8,7.4-18.2,6.9-25,0l-195.4-198.2c-6.9-6.8-6.9-18.2.6-25.1l193.7-191.9c3.4-4,8.5-6.3,13.6-6.3,10.2,0,18.2,8,18.2,17.6h0ZM243.7,320.7l195.3,193.1c6.8,6.8,6.8,18.2,0,25.1l-194.2,197.6c-3.4,3.4-8.5,6.3-13.7,6.3-9.7,0-17.7-8.6-17.7-18.2v-391.3c0-4.5,1.7-9.1,5.1-12.5,6.8-6.8,18.2-6.8,25.1,0h0ZM262.5,269.4h596.3c4.5,0,9.7,1.7,13.1,5.1,6.9,7.4,6.9,18.2,0,25.6l-249.4,248.9-.6.6c-11.4,11.4-22.2,20.5-31.3,26.8-10.8,7.4-21.1,11.4-29.6,11.4s-18.8-4-30.2-11.4c-9.1-6.3-19.4-15.4-30.7-26.8l-248.9-248.9c-4-3.4-6.3-8-6.3-13.7,0-9.7,8-17.7,17.6-17.7h0ZM674.3,551.9l195.9,195.9c2.8,3.4,5.1,8,5.1,12.5,0,9.7-8,17.7-17.7,17.7H265.4c-5.1.6-10.3-1.1-13.7-5.1-7.4-6.8-7.4-18.2,0-25.1l195.3-195.3.6-.6c6.8-6.9,18.2-6.9,25.1,0l31.9,31.3c7.4,7.4,16,13.1,24.5,17.1h1.1c9.1,4,19.4,5.7,30.7,5.7s21.1-1.7,30.8-5.7c9.1-3.4,17.7-9.1,25-17.1l31.9-30.7v-.6c7.4-6.8,18.8-6.8,25.6,0h.1Z" vector-effect="non-scaling-stroke"/>
        <g id="_x39_d8576fc-cada-46d1-863b-5ee1901404c7">
          <g class="cls-4">
            <g class="cls-4">
              <text class="cls-3" transform="translate(545.3 343.2)"><tspan x="0" y="0" xml:space="preserve">C  </tspan></text>
            </g>
          </g>
        </g>
        <g id="_x33_0412c3b-1278-4270-ad77-e8f0ac4c5e96">
          <g class="cls-4">
            <g class="cls-4">
              <text class="cls-2" transform="translate(542.4 393.9)"><tspan x="0" y="0">Q</tspan></text>
            </g>
          </g>
        </g>
        <g id="a6a8630f-83a1-4922-b7e6-7f7ba585687b">
          <g class="cls-4">
            <g class="cls-4">
              <text class="cls-1" transform="translate(538.3 456)"><tspan x="0" y="0">24</tspan></text>
            </g>
          </g>
        </g>
        <g id="_x35_245c0c4-cd71-46f0-a807-3da31c12001d">
          <g class="cls-4">
            <g class="cls-4">
              <text class="cls-3" transform="translate(505.8 509.8)"><tspan x="0" y="0">{sVg_f</tspan></text>
            </g>
          </g>
        </g>
        <g id="c039802b-a193-411f-9a77-067c36aef6b6">
          <g class="cls-4">
            <g class="cls-4">
              <text class="cls-3" transform="translate(487.3 668.5)"><tspan x="0" y="0">0r_V3</tspan></text>
            </g>
          </g>
        </g>
        <g id="e597730e-54a0-450d-999f-c64153582ac6">
          <g class="cls-4">
            <g class="cls-4">
              <text class="cls-3" transform="translate(481.6 752.4)"><tspan x="0" y="0">cT00r}</tspan></text>
            </g>
          </g>
        </g>
        <rect x="356" y="293.3" width="246" height="102.8"/>
        <ellipse cx="551.6" cy="453.3" rx="125.6" ry="46"/>
        <polygon points="469.4 713.4 404 704.7 378.8 643.7 419 591.4 484.4 600 509.6 661 469.4 713.4"/>
        <rect x="479" y="626.3" width="248" height="126.1"/>
      </g>
      <polygon points="483.2 328.3 465.4 318.8 450.9 332.7 454.5 312.9 436.7 303.4 456.7 300.6 460.2 280.8 469 298.9 489 296.2 474.4 310.1 483.2 328.3"/>
      <path class="cls-5" d="M706.3,308.2v103.9c0,1.2-1,2.4-2.4,3.3-2.9,2-7.8,1.8-10.7,0l-83.6-52.6c-3-1.8-3-4.8.3-6.7l82.9-51c1.5-1.1,3.6-1.7,5.8-1.7,4.4,0,7.8,2.1,7.8,4.7h0ZM421.7,304.9l83.6,51.3c2.9,1.8,2.9,4.8,0,6.7l-83.1,52.5c-1.5.9-3.6,1.7-5.9,1.7-4.2,0-7.6-2.3-7.6-4.8v-103.9c0-1.2.7-2.4,2.2-3.3,2.9-1.8,7.8-1.8,10.7,0h0ZM429.8,291.3h255.3c1.9,0,4.2.5,5.6,1.4,3,2,3,4.8,0,6.8l-106.8,66.1-.3.2c-4.9,3-9.5,5.4-13.4,7.1-4.6,2-9,3-12.7,3s-8-1.1-12.9-3c-3.9-1.7-8.3-4.1-13.1-7.1l-106.6-66.1c-1.7-.9-2.7-2.1-2.7-3.6,0-2.6,3.4-4.7,7.5-4.7h0ZM606,366.3l83.9,52c1.2.9,2.2,2.1,2.2,3.3,0,2.6-3.4,4.7-7.6,4.7h-253.5c-2.2.2-4.4-.3-5.9-1.4-3.2-1.8-3.2-4.8,0-6.7l83.6-51.9.3-.2c2.9-1.8,7.8-1.8,10.7,0l13.7,8.3c3.2,2,6.8,3.5,10.5,4.5h.5c3.9,1.1,8.3,1.5,13.1,1.5s9-.5,13.2-1.5c3.9-.9,7.6-2.4,10.7-4.5l13.7-8.2v-.2c3.2-1.8,8-1.8,11,0h0Z" vector-effect="non-scaling-stroke"/>
      <path class="cls-5" d="M634,655.5v96.6c0,1.1-.7,2.2-1.7,3.1-2.1,1.8-5.5,1.7-7.6,0l-59.2-48.9c-2.1-1.7-2.1-4.5.2-6.2l58.7-47.4c1-1,2.6-1.6,4.1-1.6,3.1,0,5.5,2,5.5,4.3h0ZM432.5,652.4l59.2,47.7c2.1,1.7,2.1,4.5,0,6.2l-58.9,48.8c-1,.8-2.6,1.6-4.2,1.6-2.9,0-5.4-2.1-5.4-4.5v-96.6c0-1.1.5-2.2,1.5-3.1,2.1-1.7,5.5-1.7,7.6,0h0ZM438.2,639.8h180.8c1.4,0,2.9.4,4,1.3,2.1,1.8,2.1,4.5,0,6.3l-75.6,61.5h-.2c-3.5,3-6.7,5.2-9.5,6.8-3.3,1.8-6.4,2.8-9,2.8s-5.7-1-9.2-2.8c-2.8-1.6-5.9-3.8-9.3-6.6l-75.5-61.5c-1.2-.8-1.9-2-1.9-3.4,0-2.4,2.4-4.4,5.3-4.4h0ZM563,709.5l59.4,48.4c.8.8,1.5,2,1.5,3.1,0,2.4-2.4,4.4-5.4,4.4h-179.6c-1.5.1-3.1-.3-4.2-1.3-2.2-1.7-2.2-4.5,0-6.2l59.2-48.2h.2c2.1-1.9,5.5-1.9,7.6-.1l9.7,7.7c2.2,1.8,4.9,3.2,7.4,4.2h.3c2.8,1,5.9,1.4,9.3,1.4s6.4-.4,9.3-1.4c2.8-.8,5.4-2.2,7.6-4.2l9.7-7.6h0c2.2-1.8,5.7-1.8,7.8-.1h0Z" vector-effect="non-scaling-stroke"/>
    </g>
  </g>
</svg>